<svg width="85" height="56" viewBox="0 0 85 56" fill="none" xmlns="http://www.w3.org/2000/svg">
<path d="M14.773 41.688C11.445 41.688 8.693 41.24 6.517 40.344C4.373 39.448 2.773 38.264 1.717 36.792C0.693 35.288 0.181 33.688 0.181 31.992C0.181 30.36 0.645 28.728 1.573 27.096C2.501 25.464 3.845 23.992 5.605 22.68C7.365 21.336 9.509 20.296 12.037 19.56C12.677 19.368 13.445 19.192 14.341 19.032C15.269 18.872 16.117 18.776 16.885 18.744C15.989 18.424 15.077 17.976 14.149 17.4C13.221 16.824 12.453 16.136 11.845 15.336C11.269 14.536 11.013 13.672 11.077 12.744C11.205 11.272 11.717 9.928 12.613 8.712C13.541 7.464 14.725 6.344 16.165 5.352C17.605 4.36 19.189 3.528 20.917 2.856C22.645 2.184 24.389 1.672 26.149 1.32C27.941 0.935998 29.621 0.743998 31.189 0.743998C31.541 0.743998 31.877 0.759997 32.197 0.791997C32.517 0.791997 32.821 0.807998 33.109 0.839999C35.701 1.128 37.589 1.752 38.773 2.712C39.957 3.64 40.549 4.696 40.549 5.88C40.549 7.256 39.797 8.616 38.293 9.96C36.821 11.304 34.773 12.264 32.149 12.84C31.637 12.936 31.237 12.984 30.949 12.984C30.469 12.984 30.229 12.888 30.229 12.696C30.229 12.6 30.373 12.456 30.661 12.264C30.981 12.072 31.413 11.96 31.957 11.928C32.917 11.832 33.829 11.448 34.693 10.776C35.589 10.104 36.309 9.304 36.853 8.376C37.429 7.416 37.717 6.504 37.717 5.64C37.717 4.744 37.349 3.96 36.613 3.288C35.909 2.584 34.677 2.152 32.917 1.992C32.661 1.96 32.389 1.944 32.101 1.944C31.845 1.912 31.573 1.896 31.285 1.896C29.365 1.896 27.429 2.168 25.477 2.712C23.525 3.256 21.733 4.024 20.101 5.016C18.469 6.008 17.157 7.144 16.165 8.424C15.173 9.704 14.677 11.096 14.677 12.6C14.677 13.656 14.933 14.504 15.445 15.144C15.989 15.784 16.661 16.28 17.461 16.632C18.293 16.984 19.157 17.272 20.053 17.496C20.949 17.72 21.781 17.928 22.549 18.12C23.349 18.312 23.973 18.552 24.421 18.84C24.869 19.128 25.029 19.544 24.901 20.088C24.773 20.44 24.485 20.68 24.037 20.808C23.589 20.904 22.997 20.952 22.261 20.952C21.749 20.952 21.173 20.952 20.533 20.952C19.925 20.92 19.269 20.904 18.565 20.904C17.573 20.904 16.533 20.952 15.445 21.048C14.389 21.112 13.301 21.304 12.181 21.624C10.485 22.104 8.981 22.92 7.669 24.072C6.389 25.192 5.381 26.488 4.645 27.96C3.941 29.4 3.589 30.872 3.589 32.376C3.589 33.816 3.973 35.16 4.741 36.408C5.509 37.656 6.725 38.664 8.389 39.432C10.053 40.2 12.245 40.584 14.965 40.584C17.461 40.584 19.877 40.264 22.213 39.624C24.549 38.984 26.709 38.168 28.693 37.176C30.677 36.152 32.373 35.096 33.781 34.008C34.933 33.08 35.861 32.136 36.565 31.176C37.301 30.216 37.669 29.384 37.669 28.68C37.669 27.912 37.237 27.432 36.373 27.24C35.669 27.048 35.317 26.856 35.317 26.664C35.317 26.472 35.573 26.376 36.085 26.376C36.277 26.376 36.485 26.392 36.709 26.424C36.933 26.456 37.157 26.536 37.381 26.664C38.821 27.368 39.541 28.36 39.541 29.64C39.541 31.464 38.245 33.384 35.653 35.4C34.085 36.648 32.165 37.752 29.893 38.712C27.653 39.64 25.221 40.36 22.597 40.872C20.005 41.416 17.397 41.688 14.773 41.688ZM36.5811 39.384C37.7331 37.048 38.8371 34.744 39.8931 32.472C40.9811 30.168 42.0851 27.976 43.2051 25.896C43.8451 24.744 44.3731 23.944 44.7891 23.496C45.2371 23.016 45.8291 22.776 46.5651 22.776C46.8211 22.776 47.0931 22.824 47.3811 22.92C47.6691 22.984 47.9571 23.016 48.2451 23.016C48.4371 23.016 48.5811 23 48.6771 22.968C48.2291 23.224 47.6531 23.864 46.9491 24.888C46.2451 25.88 45.5251 27.032 44.7891 28.344C44.0531 29.656 43.3971 30.888 42.8211 32.04C43.4291 31.304 44.0531 30.568 44.6931 29.832C45.3651 29.096 46.1011 28.392 46.9011 27.72C47.6691 27.048 48.5811 26.36 49.6371 25.656C50.7251 24.92 51.7811 24.312 52.8051 23.832C53.8291 23.352 54.6451 23.112 55.2531 23.112C55.4771 23.112 55.6371 23.128 55.7331 23.16C55.7331 23.16 55.5571 23.48 55.2051 24.12C54.8531 24.728 54.4051 25.544 53.8611 26.568C53.3491 27.56 52.8211 28.632 52.2771 29.784C51.7331 30.904 51.2371 31.992 50.7891 33.048C50.3731 34.072 50.1011 34.936 49.9731 35.64C49.8771 36.056 49.8291 36.44 49.8291 36.792C49.8291 37.304 49.9251 37.64 50.1171 37.8C50.3091 37.96 50.5171 38.04 50.7411 38.04C51.3491 38.04 51.9891 37.72 52.6611 37.08C53.3331 36.408 53.9731 35.592 54.5811 34.632C55.2211 33.672 55.7811 32.744 56.2611 31.848C56.7731 30.92 57.1411 30.216 57.3651 29.736C57.4931 29.48 57.5891 29.336 57.6531 29.304C57.7171 29.24 57.8131 29.208 57.9411 29.208C58.1331 29.208 58.2291 29.336 58.2291 29.592C58.2291 29.752 58.1811 29.928 58.0851 30.12C57.7011 30.856 57.2371 31.736 56.6931 32.76C56.1811 33.784 55.5891 34.792 54.9171 35.784C54.2451 36.744 53.5091 37.56 52.7091 38.232C51.9091 38.872 51.0451 39.192 50.1171 39.192C49.4771 39.192 48.8051 38.968 48.1011 38.52C47.4291 38.072 47.0931 37.24 47.0931 36.024C47.0931 35.672 47.1251 35.304 47.1891 34.92C47.2531 34.504 47.3651 34.056 47.5251 33.576C47.7811 32.936 48.0851 32.248 48.4371 31.512C48.7891 30.776 49.3651 29.768 50.1651 28.488C50.3891 28.136 50.5171 27.864 50.5491 27.672C50.6131 27.48 50.6451 27.32 50.6451 27.192C50.6451 26.808 50.4691 26.616 50.1171 26.616C49.8291 26.616 49.3971 26.776 48.8211 27.096C48.2771 27.416 47.5891 27.976 46.7571 28.776C45.9571 29.544 44.9971 30.632 43.8771 32.04C42.7891 33.448 41.5251 35.528 40.0851 38.28C39.8611 38.696 39.6051 38.92 39.3171 38.952C39.0611 38.984 38.6931 39.016 38.2131 39.048C37.8931 39.08 37.5891 39.096 37.3011 39.096C37.0131 39.128 36.7731 39.224 36.5811 39.384ZM51.5541 55.848C50.8501 55.848 50.2421 55.672 49.7301 55.32C49.1861 54.968 48.9141 54.28 48.9141 53.256C48.9141 51.656 49.3941 49.48 50.3541 46.728C51.3141 43.976 52.4821 40.952 53.8581 37.656C53.4741 37.016 53.2821 36.344 53.2821 35.64C53.2821 34.52 53.6021 33.752 54.2421 33.336C54.7861 32.888 55.3621 32.712 55.9701 32.808C57.1221 30.216 58.2901 27.672 59.4741 25.176C60.6581 22.648 61.7941 20.264 62.8821 18.024C64.0021 15.784 65.0101 13.816 65.9061 12.12C66.4501 11.064 67.0101 10.248 67.5861 9.672C68.1941 9.096 68.9781 8.808 69.9381 8.808C70.2261 8.808 70.5621 8.872 70.9461 9C71.3621 9.096 71.7301 9.128 72.0501 9.096C71.3141 9.8 70.3861 10.984 69.2661 12.648C68.1781 14.28 66.9941 16.232 65.7141 18.504C64.4341 20.776 63.1221 23.24 61.7781 25.896C60.4661 28.52 59.2021 31.192 57.9861 33.912C58.2741 34.296 58.5621 34.808 58.8501 35.448C59.1701 36.088 59.3941 36.776 59.5221 37.512C59.5221 37.608 59.5381 37.72 59.5701 37.848C59.6021 37.944 59.6341 38.04 59.6661 38.136C60.4021 38.168 61.1061 37.912 61.7781 37.368C62.4821 36.824 63.1381 36.104 63.7461 35.208C64.3861 34.312 64.9621 33.368 65.4741 32.376C66.0181 31.384 66.4821 30.456 66.8661 29.592C66.9301 29.464 67.0101 29.384 67.1061 29.352C67.2341 29.288 67.3301 29.256 67.3941 29.256C67.5221 29.256 67.6181 29.32 67.6821 29.448C67.7461 29.544 67.7301 29.704 67.6341 29.928C67.1861 30.92 66.6901 31.96 66.1461 33.048C65.6021 34.104 64.9941 35.096 64.3221 36.024C63.6501 36.92 62.9301 37.656 62.1621 38.232C61.3941 38.776 60.5781 39.048 59.7141 39.048C59.7461 39.272 59.7621 39.496 59.7621 39.72C59.7621 39.976 59.7621 40.232 59.7621 40.488C59.7621 42.152 59.5541 43.88 59.1381 45.672C58.7541 47.464 58.1941 49.128 57.4581 50.664C56.7221 52.2 55.8581 53.448 54.8661 54.408C53.8741 55.368 52.7701 55.848 51.5541 55.848ZM58.3701 38.328H58.6101C58.5781 37.496 58.4341 36.776 58.1781 36.168C57.9861 35.72 57.7461 35.336 57.4581 35.016C57.2661 35.464 57.0901 35.88 56.9301 36.264C56.8021 36.616 56.6421 37.016 56.4501 37.464C56.7381 38.04 57.3781 38.328 58.3701 38.328ZM52.2741 54.552C52.5941 54.552 52.9781 54.36 53.4261 53.976C53.8741 53.624 54.3061 53.16 54.7221 52.584C55.5221 51.528 56.2261 50.232 56.8341 48.696C57.4421 47.16 57.9221 45.56 58.2741 43.896C58.6261 42.232 58.7861 40.68 58.7541 39.24C58.6901 39.24 58.6101 39.24 58.5141 39.24C58.4501 39.272 58.3861 39.288 58.3221 39.288C57.9061 39.288 57.4741 39.208 57.0261 39.048C56.5781 38.888 56.2101 38.696 55.9221 38.472C55.0901 40.616 54.3221 42.728 53.6181 44.808C52.8821 46.92 52.3221 48.776 51.9381 50.376C51.8101 50.984 51.7141 51.512 51.6501 51.96C51.5861 52.408 51.5541 52.792 51.5541 53.112C51.5541 54.072 51.7941 54.552 52.2741 54.552ZM77.056 39.144C76.704 39.176 76.304 39.096 75.856 38.904C75.408 38.712 75.008 38.36 74.656 37.848C74.336 37.336 74.176 36.616 74.176 35.688C74.176 34.92 74.32 33.992 74.608 32.904C74.224 33.512 73.728 34.264 73.12 35.16C72.512 36.024 71.856 36.792 71.152 37.464C70.544 38.04 69.968 38.456 69.424 38.712C68.88 38.968 68.384 39.096 67.936 39.096C67.104 39.096 66.432 38.728 65.92 37.992C65.408 37.224 65.152 36.232 65.152 35.016C65.152 33.736 65.472 32.28 66.112 30.648C66.752 29.016 67.792 27.32 69.232 25.56C70.16 24.44 71.28 23.544 72.592 22.872C73.936 22.168 75.248 21.816 76.528 21.816C77.264 21.816 77.968 21.944 78.64 22.2C79.312 22.424 79.904 22.808 80.416 23.352C80.64 23.576 80.752 23.832 80.752 24.12C80.752 24.312 80.672 24.472 80.512 24.6C80.352 24.728 80.144 24.76 79.888 24.696C79.536 23.576 78.784 23.016 77.632 23.016C77.088 23.016 76.464 23.192 75.76 23.544C74.672 24.12 73.536 25.064 72.352 26.376C71.2 27.688 70.192 29.048 69.328 30.456C69.2 30.648 68.992 31.016 68.704 31.56C68.448 32.104 68.192 32.712 67.936 33.384C67.68 34.056 67.504 34.712 67.408 35.352C67.376 35.544 67.36 35.688 67.36 35.784C67.36 35.848 67.36 35.96 67.36 36.12C67.36 37.176 67.76 37.704 68.56 37.704C69.52 37.704 70.608 37 71.824 35.592C72.656 34.568 73.408 33.496 74.08 32.376C74.752 31.256 75.44 30.056 76.144 28.776C76.624 27.912 77.072 27.192 77.488 26.616C77.904 26.04 78.496 25.752 79.264 25.752C79.616 25.752 79.968 25.8 80.32 25.896C80.672 25.992 81.04 26.008 81.424 25.944C81.168 26.2 80.816 26.68 80.368 27.384C79.952 28.088 79.504 28.888 79.024 29.784C78.544 30.68 78.112 31.592 77.728 32.52C77.344 33.448 77.072 34.248 76.912 34.92C76.88 35.112 76.832 35.384 76.768 35.736C76.736 36.088 76.72 36.344 76.72 36.504C76.72 37.4 76.976 37.848 77.488 37.848C78 37.848 78.544 37.544 79.12 36.936C79.728 36.328 80.32 35.576 80.896 34.68C81.472 33.784 82 32.888 82.48 31.992C82.96 31.064 83.344 30.312 83.632 29.736C83.76 29.416 83.952 29.256 84.208 29.256C84.368 29.256 84.448 29.368 84.448 29.592C84.448 29.688 84.4 29.864 84.304 30.12C83.92 30.92 83.456 31.832 82.912 32.856C82.368 33.848 81.776 34.824 81.136 35.784C80.496 36.712 79.824 37.496 79.12 38.136C78.448 38.744 77.76 39.08 77.056 39.144Z" fill="white"/>
</svg>
